<svg width="79" height="37" viewBox="0 0 79 37" fill="none" xmlns="http://www.w3.org/2000/svg">
<path d="M18.304 26.76C17.8133 26.76 17.3227 26.568 16.832 26.184C16.3413 25.8 15.9893 25.2133 15.776 24.424C15.5627 23.6133 15.4133 22.696 15.328 21.672C15.2427 20.648 15.2 19.5493 15.2 18.376C15.2 16.9253 15.2533 15.4427 15.36 13.928C15.488 12.392 15.648 10.9093 15.84 9.48C16.0533 8.05067 16.2773 6.78133 16.512 5.672C15.6373 5.56533 14.7627 5.46933 13.888 5.384C13.0133 5.29867 12.1173 5.224 11.2 5.16C10.9227 5.13867 10.656 5.128 10.4 5.128C10.144 5.10667 9.888 5.096 9.632 5.096C7.62667 5.096 5.92 5.352 4.512 5.864C3.104 6.35467 2.13333 6.984 1.6 7.752C1.32267 8.15733 1.184 8.584 1.184 9.032C1.184 9.69333 1.48267 10.3227 2.08 10.92C2.69867 11.496 3.59467 11.8693 4.768 12.04C5.32267 12.1253 5.86667 12.1893 6.4 12.232C6.93333 12.2533 7.43467 12.264 7.904 12.264C8.43733 12.264 8.896 12.2533 9.28 12.232C9.68533 12.1893 9.96267 12.1573 10.112 12.136C10.176 12.1147 10.272 12.104 10.4 12.104C10.72 12.104 10.88 12.168 10.88 12.296C10.88 12.424 10.6667 12.5627 10.24 12.712C9.70667 12.8827 9.07733 13.032 8.352 13.16C7.62667 13.288 6.88 13.352 6.112 13.352C5.152 13.352 4.224 13.224 3.328 12.968C2.45333 12.6907 1.728 12.232 1.152 11.592C0.597333 10.9307 0.32 10.024 0.32 8.872C0.32 7.89067 0.565333 7.06933 1.056 6.408C1.568 5.74667 2.22933 5.224 3.04 4.84C3.872 4.43467 4.75733 4.136 5.696 3.944C6.656 3.752 7.59467 3.624 8.512 3.56C9.42933 3.496 10.2293 3.464 10.912 3.464C12.0853 3.464 13.184 3.54933 14.208 3.72C15.2533 3.89067 16.1493 3.976 16.896 3.976H16.928C16.9707 3.82667 17.0133 3.688 17.056 3.56C17.0987 3.432 17.1413 3.304 17.184 3.176C17.2053 3.112 17.248 3.08 17.312 3.08C17.3973 3.05866 17.472 3.048 17.536 3.048C18.0907 3.048 18.5173 3.13333 18.816 3.304C19.1147 3.47467 19.3493 3.784 19.52 4.232L19.456 4.424C20.736 4.65867 22.1333 4.89333 23.648 5.128C25.1627 5.34133 26.5493 5.448 27.808 5.448C28.1067 5.448 28.576 5.42667 29.216 5.384C29.8773 5.34133 30.56 5.24533 31.264 5.096C31.968 4.94667 32.5653 4.72267 33.056 4.424C33.568 4.104 33.824 3.67733 33.824 3.144C33.824 3.03733 33.8133 2.93067 33.792 2.824C33.7707 2.696 33.7173 2.58933 33.632 2.504C33.5893 2.46133 33.568 2.39733 33.568 2.312C33.568 2.20533 33.632 2.152 33.76 2.152C33.9093 2.152 34.0267 2.22667 34.112 2.376C34.3253 2.71733 34.432 3.048 34.432 3.368C34.432 4.05066 34.1653 4.648 33.632 5.16C33.0987 5.65067 32.416 6.03467 31.584 6.312C30.752 6.568 29.8773 6.696 28.96 6.696C27.2107 6.696 25.5253 6.632 23.904 6.504C22.2827 6.35467 20.6933 6.184 19.136 5.992C18.9227 6.97333 18.6773 8.21067 18.4 9.704C18.144 11.1973 17.9093 12.776 17.696 14.44C17.4827 16.104 17.344 17.6933 17.28 19.208C17.28 19.4213 17.2693 19.6453 17.248 19.88C17.248 20.1147 17.248 20.36 17.248 20.616C17.248 21.3413 17.28 22.0773 17.344 22.824C17.4293 23.5493 17.5787 24.1573 17.792 24.648C18.0053 25.1387 18.3253 25.384 18.752 25.384C18.9653 25.384 19.1893 25.3413 19.424 25.256C19.6587 25.1707 19.808 25.0853 19.872 25H20.096C20.0533 25.576 19.8507 26.0133 19.488 26.312C19.1467 26.6107 18.752 26.76 18.304 26.76ZM29.5557 25.16C28.8517 25.16 28.2971 24.936 27.8917 24.488C27.4864 24.0187 27.1984 23.4213 27.0277 22.696C26.8784 21.9493 26.8037 21.1493 26.8037 20.296C26.8037 19.3787 26.8571 18.4827 26.9637 17.608C27.0917 16.712 27.2197 15.9227 27.3477 15.24C27.4971 14.5573 27.6037 14.088 27.6677 13.832C27.0704 13.7893 26.6011 13.6933 26.2597 13.544C25.9184 13.3947 25.6304 13.2133 25.3957 13C25.3104 14.024 25.1717 15.1227 24.9797 16.296C24.8091 17.4693 24.6064 18.6 24.3717 19.688C24.1371 20.7547 23.8811 21.672 23.6037 22.44C23.5184 22.7173 23.3797 22.856 23.1877 22.856C23.0384 22.856 22.9637 22.76 22.9637 22.568C22.9637 22.5253 22.9637 22.472 22.9637 22.408C22.9851 22.344 23.0064 22.28 23.0277 22.216C23.3691 21.2347 23.6571 20.168 23.8917 19.016C24.1264 17.8427 24.3077 16.712 24.4357 15.624C24.5637 14.536 24.6277 13.6293 24.6277 12.904V12.552C24.0944 12.3173 23.6997 11.976 23.4437 11.528C23.2091 11.08 23.0917 10.6533 23.0917 10.248C23.0917 9.94933 23.1451 9.68267 23.2517 9.448C23.3797 9.21333 23.5611 9.096 23.7957 9.096H23.8597C24.1584 9.096 24.4251 9.30933 24.6597 9.736C24.8944 10.1413 25.0864 10.6 25.2357 11.112C25.3851 11.6027 25.4597 11.9973 25.4597 12.296C25.7157 12.488 25.9931 12.6267 26.2917 12.712C26.6117 12.7973 26.8784 12.84 27.0917 12.84C27.3691 12.84 27.5504 12.7973 27.6357 12.712C27.8064 12.5413 28.0091 12.296 28.2437 11.976C28.4997 11.656 28.8944 11.496 29.4277 11.496C29.7904 11.496 30.2277 11.6027 30.7397 11.816C30.4837 12.3493 30.2491 12.9573 30.0357 13.64C29.8224 14.3013 29.6411 15.0053 29.4917 15.752C29.4704 15.9227 29.4171 16.264 29.3317 16.776C29.2464 17.288 29.1717 17.8747 29.1077 18.536C29.0437 19.1973 29.0117 19.8587 29.0117 20.52C29.0117 21.4587 29.1077 22.2907 29.2997 23.016C29.5131 23.72 29.8971 24.072 30.4517 24.072C30.7931 24.072 31.0917 23.9333 31.3477 23.656C31.6037 23.3787 31.8277 23.0373 32.0197 22.632C32.2117 22.2053 32.3717 21.8 32.4997 21.416C32.6277 21.0107 32.7237 20.6907 32.7877 20.456C32.8304 20.264 32.9157 20.168 33.0437 20.168C33.1504 20.168 33.2037 20.2853 33.2037 20.52V20.68C33.2037 21.6613 33.0224 22.4933 32.6597 23.176C32.3184 23.8373 31.8704 24.3387 31.3157 24.68C30.7611 25 30.1744 25.16 29.5557 25.16ZM36.7592 8.808C36.3539 8.808 35.9912 8.65867 35.6712 8.36C35.3726 8.06133 35.2232 7.69867 35.2232 7.272C35.2232 6.84533 35.3726 6.48267 35.6712 6.184C35.9912 5.88533 36.3539 5.736 36.7592 5.736C37.1859 5.736 37.5486 5.88533 37.8472 6.184C38.1459 6.48267 38.2952 6.84533 38.2952 7.272C38.2952 7.69867 38.1459 8.06133 37.8472 8.36C37.5486 8.65867 37.1859 8.808 36.7592 8.808ZM36.5352 25.16C35.7672 25.16 35.1592 24.84 34.7112 24.2C34.2846 23.5387 33.9752 22.7067 33.7832 21.704C33.6126 20.68 33.5272 19.6133 33.5272 18.504C33.5272 17.5867 33.5699 16.7013 33.6552 15.848C33.7619 14.9733 33.8792 14.216 34.0072 13.576C34.1566 12.9147 34.2952 12.4453 34.4232 12.168C34.5512 11.912 34.7539 11.6773 35.0312 11.464C35.3299 11.2293 35.7246 11.112 36.2152 11.112C36.4926 11.112 36.7699 11.144 37.0472 11.208C36.8339 11.9547 36.5779 12.9893 36.2792 14.312C35.9806 15.6347 35.8312 17.096 35.8312 18.696C35.8312 19.2507 35.8419 19.848 35.8632 20.488C35.8846 21.1067 35.9379 21.6933 36.0232 22.248C36.1086 22.7813 36.2366 23.2187 36.4072 23.56C36.5992 23.9013 36.8446 24.072 37.1432 24.072H37.1752C37.3459 24.072 37.5272 23.9867 37.7192 23.816C37.9326 23.6453 38.1566 23.3253 38.3912 22.856C38.7112 22.2373 39.0099 21.4373 39.2872 20.456C39.3299 20.264 39.4152 20.168 39.5432 20.168C39.6499 20.168 39.7032 20.296 39.7032 20.552V20.68C39.6606 21.2347 39.5112 21.864 39.2552 22.568C38.9992 23.272 38.6366 23.88 38.1672 24.392C37.7192 24.904 37.1752 25.16 36.5352 25.16ZM39.4105 36.008C38.6638 36.008 38.1412 35.6453 37.8425 34.92C37.5225 34.1947 37.3625 33.2987 37.3625 32.232C37.3625 31.784 37.3838 31.304 37.4265 30.792C37.4692 30.3013 37.5332 29.8107 37.6185 29.32C37.7252 28.6373 37.8745 27.9653 38.0665 27.304C38.2585 26.6427 38.4612 26.0133 38.6745 25.416C38.9732 24.5627 39.3038 23.7627 39.6665 23.016C40.0505 22.248 40.2425 21.4053 40.2425 20.488V20.36C40.2425 19.1013 40.1892 17.928 40.0825 16.84C39.9972 15.752 39.8798 14.8133 39.7305 14.024C39.6025 13.2347 39.4745 12.6587 39.3465 12.296C39.7732 12.168 40.1358 12.0187 40.4345 11.848C40.7332 11.6773 41.0105 11.5813 41.2665 11.56H41.4265C41.8318 11.56 42.0878 11.7733 42.1945 12.2C42.3012 12.6053 42.3652 13.096 42.3865 13.672C42.4078 14.056 42.4185 14.5573 42.4185 15.176C42.4185 15.7947 42.4292 16.4773 42.4505 17.224C42.7492 16.1573 43.1012 15.1227 43.5065 14.12C43.9118 13.1173 44.3598 12.296 44.8505 11.656C45.3412 10.9947 45.8425 10.664 46.3545 10.664C46.9945 10.664 47.4852 10.888 47.8265 11.336C48.1892 11.784 48.4452 12.3493 48.5945 13.032C48.7652 13.6933 48.8612 14.3653 48.8825 15.048C48.9252 15.7093 48.9465 16.264 48.9465 16.712C48.9465 17.8213 48.7972 18.984 48.4985 20.2C48.2212 21.416 47.7625 22.4507 47.1225 23.304H47.3465C48.1145 23.304 48.8718 22.952 49.6185 22.248C50.3865 21.5227 51.0372 20.4347 51.5705 18.984C51.6558 18.7707 51.7518 18.664 51.8585 18.664C52.0078 18.664 52.0825 18.7813 52.0825 19.016C52.0825 19.1013 52.0718 19.1653 52.0505 19.208C51.4745 20.872 50.7598 22.0773 49.9065 22.824C49.0745 23.5707 48.2532 23.944 47.4425 23.944C47.3145 23.944 47.1865 23.9333 47.0585 23.912C46.9305 23.8693 46.8025 23.8373 46.6745 23.816C46.3332 24.1787 45.9385 24.4667 45.4905 24.68C45.0425 24.8933 44.5412 25 43.9865 25C43.3678 25 42.8985 24.872 42.5785 24.616V26.024C42.5785 26.6853 42.5785 27.2827 42.5785 27.816C42.5785 28.3707 42.5678 28.8187 42.5465 29.16C42.4825 30.504 42.3652 31.6027 42.1945 32.456C41.9812 33.5013 41.6612 34.3547 41.2345 35.016C40.8078 35.6773 40.2318 36.008 39.5065 36.008H39.4105ZM43.5065 24.136C43.8478 24.136 44.1572 24.0293 44.4345 23.816C44.9252 23.432 45.3198 22.8133 45.6185 21.96C45.9385 21.0853 46.1625 20.2213 46.2905 19.368C46.3545 19.0053 46.3972 18.568 46.4185 18.056C46.4612 17.544 46.4825 17.0213 46.4825 16.488C46.4825 15.5707 46.4078 14.7493 46.2585 14.024C46.1092 13.2773 45.8212 12.904 45.3945 12.904C45.1385 12.904 44.8718 13.128 44.5945 13.576C44.3385 14.024 44.0825 14.6107 43.8265 15.336C43.5705 16.0613 43.3252 16.84 43.0905 17.672C42.8772 18.4827 42.6852 19.2613 42.5145 20.008C42.5358 20.6267 42.5465 21.2453 42.5465 21.864C42.5465 22.4827 42.5465 23.1013 42.5465 23.72C42.8238 23.9973 43.1438 24.136 43.5065 24.136ZM39.2825 34.984C39.4105 34.984 39.5385 34.888 39.6665 34.696C39.8158 34.5253 39.9438 34.2373 40.0505 33.832C40.1998 33.2773 40.2958 32.5627 40.3385 31.688C40.4025 30.8133 40.4345 29.896 40.4345 28.936C40.4345 27.8907 40.4132 26.8667 40.3705 25.864C40.3278 24.8827 40.2852 24.0613 40.2425 23.4C40.0505 23.848 39.8372 24.3813 39.6025 25C39.3678 25.6187 39.1652 26.2693 38.9945 26.952C38.7812 27.72 38.6105 28.4987 38.4825 29.288C38.3332 30.0987 38.2585 30.9093 38.2585 31.72C38.2585 32.4027 38.3225 33.0853 38.4505 33.768C38.5145 34.0667 38.6318 34.344 38.8025 34.6C38.9518 34.856 39.1118 34.984 39.2825 34.984ZM54.898 8.808C54.4927 8.808 54.13 8.65867 53.81 8.36C53.5113 8.06133 53.362 7.69867 53.362 7.272C53.362 6.84533 53.5113 6.48267 53.81 6.184C54.13 5.88533 54.4927 5.736 54.898 5.736C55.3247 5.736 55.6873 5.88533 55.986 6.184C56.2847 6.48267 56.434 6.84533 56.434 7.272C56.434 7.69867 56.2847 8.06133 55.986 8.36C55.6873 8.65867 55.3247 8.808 54.898 8.808ZM54.674 25.16C53.906 25.16 53.298 24.84 52.85 24.2C52.4233 23.5387 52.114 22.7067 51.922 21.704C51.7513 20.68 51.666 19.6133 51.666 18.504C51.666 17.5867 51.7087 16.7013 51.794 15.848C51.9007 14.9733 52.018 14.216 52.146 13.576C52.2953 12.9147 52.434 12.4453 52.562 12.168C52.69 11.912 52.8927 11.6773 53.17 11.464C53.4687 11.2293 53.8633 11.112 54.354 11.112C54.6313 11.112 54.9087 11.144 55.186 11.208C54.9727 11.9547 54.7167 12.9893 54.418 14.312C54.1193 15.6347 53.97 17.096 53.97 18.696C53.97 19.2507 53.9807 19.848 54.002 20.488C54.0233 21.1067 54.0767 21.6933 54.162 22.248C54.2473 22.7813 54.3753 23.2187 54.546 23.56C54.738 23.9013 54.9833 24.072 55.282 24.072H55.314C55.4847 24.072 55.666 23.9867 55.858 23.816C56.0713 23.6453 56.2953 23.3253 56.53 22.856C56.85 22.2373 57.1487 21.4373 57.426 20.456C57.4687 20.264 57.554 20.168 57.682 20.168C57.7887 20.168 57.842 20.296 57.842 20.552V20.68C57.7993 21.2347 57.65 21.864 57.394 22.568C57.138 23.272 56.7753 23.88 56.306 24.392C55.858 24.904 55.314 25.16 54.674 25.16ZM62.5732 35.496C61.8052 35.496 61.1972 35.3147 60.7492 34.952C60.3012 34.6107 59.9599 34.1627 59.7252 33.608C59.4906 33.0747 59.3199 32.488 59.2132 31.848C59.1066 31.2293 59.0319 30.632 58.9892 30.056C58.9679 29.6933 58.9466 29.0533 58.9252 28.136C58.9039 27.2187 58.8932 26.1307 58.8932 24.872C58.8932 24.4453 58.8932 23.9653 58.8932 23.432C58.8932 22.8773 58.9039 22.152 58.9252 21.256C58.9466 20.3387 58.9679 19.1227 58.9892 17.608C59.0106 16.6693 59.0532 15.6133 59.1172 14.44C59.1812 13.2453 59.2772 12.0293 59.4052 10.792C59.5546 9.53333 59.7359 8.31733 59.9492 7.144C60.1839 5.94933 60.4612 4.88267 60.7812 3.944C61.1226 3.00533 61.5279 2.25867 61.9972 1.704C62.4879 1.14933 63.0532 0.872 63.6932 0.872C64.2266 0.872 64.6532 1.04267 64.9732 1.384C65.2932 1.72533 65.5279 2.14133 65.6772 2.632C65.8266 3.10133 65.9012 3.54933 65.9012 3.976C65.9012 4.95733 65.7519 6.06667 65.4532 7.304C65.1759 8.52 64.7919 9.78933 64.3012 11.112C63.8319 12.4347 63.3199 13.736 62.7652 15.016C62.2106 16.296 61.6666 17.48 61.1332 18.568C61.1119 18.7813 61.0906 18.9947 61.0692 19.208C61.0692 19.4 61.0692 19.6027 61.0692 19.816C61.9866 19.8587 62.7546 20.1573 63.3732 20.712C64.0132 21.2667 64.5146 21.9707 64.8772 22.824C65.2612 23.6773 65.5279 24.584 65.6772 25.544C65.8479 26.5253 65.9332 27.4427 65.9332 28.296C65.9332 29.576 65.8052 30.76 65.5492 31.848C65.2932 32.936 64.9092 33.8107 64.3972 34.472C63.9066 35.1547 63.2986 35.496 62.5732 35.496ZM61.2612 16.648C62.0079 15.048 62.6692 13.4267 63.2452 11.784C63.8212 10.1413 64.2692 8.44533 64.5892 6.696C64.6746 6.22667 64.7386 5.77867 64.7812 5.352C64.8452 4.904 64.8772 4.50933 64.8772 4.168C64.8772 3.74133 64.8346 3.4 64.7492 3.144C64.6639 2.888 64.5359 2.74933 64.3652 2.728H64.3332C64.0772 2.728 63.8319 2.96267 63.5972 3.432C63.3626 3.88 63.1599 4.47733 62.9892 5.224C62.5839 7.03733 62.2319 8.91467 61.9332 10.856C61.6559 12.7973 61.4319 14.728 61.2612 16.648ZM62.6052 34.856C62.9892 34.856 63.3306 34.6213 63.6292 34.152C63.9279 33.6827 64.1626 33.064 64.3332 32.296C64.5039 31.528 64.5892 30.6853 64.5892 29.768C64.5892 29 64.5572 28.1253 64.4932 27.144C64.4292 26.184 64.2799 25.2347 64.0452 24.296C63.8106 23.3573 63.4479 22.5467 62.9572 21.864C62.4879 21.1813 61.8372 20.7547 61.0052 20.584C60.9412 22.0133 60.9092 23.4 60.9092 24.744C60.9092 26.6853 60.9732 28.4133 61.1012 29.928C61.2506 31.464 61.4532 32.6693 61.7092 33.544C61.9652 34.4187 62.2639 34.856 62.6052 34.856ZM68.4353 36.776C67.2619 36.776 66.4299 36.4773 65.9393 35.88C65.4273 35.304 65.1713 34.5787 65.1713 33.704C65.1713 33.0427 65.2886 32.3387 65.5233 31.592C65.7579 30.8453 66.0566 30.12 66.4193 29.416C66.9313 28.456 67.5819 27.5707 68.3713 26.76C69.1819 25.9493 70.0139 25.2347 70.8673 24.616C71.7206 23.976 72.4566 23.464 73.0753 23.08C73.0753 22.8027 73.0646 22.3547 73.0433 21.736C73.0219 21.096 72.9899 20.3813 72.9473 19.592C72.9259 18.7813 72.8833 18.0027 72.8193 17.256C72.6486 18.1947 72.4033 19.1227 72.0833 20.04C71.7846 20.9573 71.4219 21.896 70.9953 22.856C70.8886 23.0907 70.7179 23.3893 70.4833 23.752C70.2486 24.1147 69.9819 24.4347 69.6833 24.712C69.3846 24.968 69.0646 25.096 68.7233 25.096C68.4673 25.096 68.2219 24.9893 67.9873 24.776C67.7739 24.584 67.5926 24.2533 67.4433 23.784C67.3153 23.2933 67.2086 22.7387 67.1233 22.12C67.0593 21.5013 67.0059 20.872 66.9633 20.232C66.9419 19.592 66.9313 19.016 66.9313 18.504C66.9313 18.2693 66.9313 18.0667 66.9313 17.896C66.9526 17.704 66.9633 17.544 66.9633 17.416C66.9846 16.968 67.0059 16.4347 67.0273 15.816C67.0699 15.1973 67.1339 14.5787 67.2193 13.96C67.3046 13.32 67.4326 12.776 67.6033 12.328C67.9233 11.5173 68.5526 11.112 69.4913 11.112C69.5979 11.112 69.6939 11.112 69.7793 11.112C69.8859 11.112 69.9819 11.1227 70.0673 11.144C70.1313 11.1653 70.1846 11.1867 70.2273 11.208C70.2913 11.208 70.3233 11.24 70.3233 11.304C70.3233 11.3467 70.3126 11.3787 70.2913 11.4C70.0779 11.912 69.8966 12.584 69.7473 13.416C69.5979 14.2267 69.4806 15.1013 69.3953 16.04C69.3099 16.9787 69.2673 17.8747 69.2673 18.728C69.2673 19.1547 69.2779 19.5707 69.2993 19.976C69.3206 20.36 69.3526 20.7013 69.3953 21C69.4593 21.3627 69.5446 21.6933 69.6513 21.992C69.7579 22.2907 69.8966 22.44 70.0673 22.44C70.1953 22.44 70.3553 22.312 70.5473 22.056C70.9739 21.4587 71.3259 20.7547 71.6033 19.944C71.9019 19.112 72.1259 18.2587 72.2753 17.384C72.4459 16.5093 72.5526 15.6987 72.5953 14.952C72.6166 14.4827 72.6379 13.992 72.6593 13.48C72.6806 12.968 72.8086 12.5093 73.0433 12.104C73.3206 11.6133 73.6619 11.3147 74.0673 11.208C74.4939 11.1013 74.8566 11.048 75.1553 11.048H75.5393C75.8593 11.048 76.0193 11.112 76.0193 11.24C76.0193 11.2827 75.9766 11.3467 75.8913 11.432C75.6779 11.624 75.5073 11.9973 75.3793 12.552C75.2726 13.1067 75.1979 13.768 75.1553 14.536C75.1126 15.2827 75.0913 16.0613 75.0913 16.872C75.0913 17.7893 75.1019 18.6747 75.1233 19.528C75.1446 20.36 75.1553 21.0107 75.1553 21.48V21.832C75.7739 21.4693 76.3073 21.1813 76.7553 20.968C77.2246 20.7333 77.5766 20.616 77.8113 20.616C77.8539 20.616 77.8859 20.6267 77.9073 20.648C77.9286 20.648 77.9499 20.648 77.9713 20.648C78.0779 20.6693 78.1313 20.7547 78.1313 20.904C78.1313 20.968 78.1099 21.0427 78.0673 21.128C78.0246 21.192 77.9606 21.224 77.8753 21.224C77.6193 21.2453 77.2673 21.384 76.8193 21.64C76.3926 21.8747 75.9979 22.152 75.6353 22.472C75.2726 22.7707 75.0913 23.0373 75.0913 23.272V23.656C75.0913 26.6213 74.7819 29.0747 74.1633 31.016C73.5659 32.9573 72.7553 34.3973 71.7313 35.336C70.7286 36.296 69.6299 36.776 68.4353 36.776ZM68.0833 36.104H68.1793C68.9259 36.104 69.5553 35.8587 70.0673 35.368C70.6006 34.8773 71.0379 34.2267 71.3793 33.416C71.7419 32.6267 72.0299 31.7627 72.2433 30.824C72.4779 29.8853 72.6486 28.9467 72.7553 28.008C72.8833 27.0907 72.9686 26.2587 73.0113 25.512C73.0539 24.7867 73.0859 24.2427 73.1073 23.88C72.7659 24.072 72.2433 24.4667 71.5393 25.064C70.8353 25.6613 70.0993 26.3973 69.3313 27.272C68.5846 28.168 67.9553 29.1813 67.4433 30.312C67.1659 30.9307 66.9526 31.528 66.8033 32.104C66.6753 32.7013 66.6113 33.2453 66.6113 33.736C66.6113 34.44 66.7393 35.0053 66.9953 35.432C67.2513 35.88 67.6139 36.104 68.0833 36.104Z" fill="#5C67E1"/>
</svg>
