<svg width="72" height="72" viewBox="0 0 72 72" fill="none" xmlns="http://www.w3.org/2000/svg">
<g id="Icon flag">
<rect id="Rectangle 3" x="0.75" y="0.75" width="70.5" height="70.5" rx="10.25" fill="white" stroke="#D9D9D9" stroke-width="0.5"/>
<g id="&#240;&#159;&#166;&#134; icon &#34;flag&#34;">
<path id="Vector" d="M40.6977 25.6875C37.8189 25.6875 35.2306 23.8125 31.2106 23.8125C29.3766 23.8125 27.7944 24.1923 26.4809 24.7013C26.611 24.3105 26.6539 23.8959 26.6064 23.4868C26.4531 22.147 25.3457 21.0934 24.0001 21.0061C22.3618 20.8998 21 22.1971 21 23.8125C21 24.8534 21.5658 25.7614 22.4062 26.2478V50.0625C22.4062 50.5803 22.826 51 23.3438 51H24.2812C24.799 51 25.2188 50.5803 25.2188 50.0625V45.1733C27.4376 44.1609 29.3941 43.5 32.7086 43.5C35.5874 43.5 38.1756 45.375 42.1956 45.375C45.6221 45.375 48.1706 44.0498 49.7278 43.0324C50.5222 42.5133 51 41.628 51 40.679V26.6213C51 24.6022 48.9338 23.2365 47.0798 24.0363C44.9762 24.9439 42.7758 25.6875 40.6977 25.6875ZM48.1875 40.6875C46.9112 41.5906 44.6236 42.5625 42.1956 42.5625C38.6832 42.5625 36.219 40.6875 32.7086 40.6875C30.1679 40.6875 27.0613 41.2385 25.2188 42.0938V28.5C26.4952 27.597 28.7827 26.625 31.2106 26.625C34.723 26.625 37.1873 28.5 40.6977 28.5C43.2331 28.5 46.3414 27.4825 48.1875 26.625V40.6875Z" fill="#5C67E1"/>
</g>
</g>
</svg>
