<svg width="72" height="72" viewBox="0 0 72 72" fill="none" xmlns="http://www.w3.org/2000/svg">
<rect x="0.75" y="0.75" width="70.5" height="70.5" rx="10.25" fill="white" stroke="#D9D9D9" stroke-width="0.5"/>
<g clip-path="url(#clip0_81_123)">
<rect width="35" height="35" transform="translate(19 19)" fill="white"/>
<path d="M50.3542 24.8333H47.1944V26.7778H50.1111V48.1666H22.8889V26.7778H25.8055V24.8333H22.6458C22.4186 24.8371 22.1943 24.8856 21.9857 24.9761C21.7772 25.0666 21.5886 25.1973 21.4306 25.3607C21.2726 25.5241 21.1484 25.7171 21.0649 25.9285C20.9815 26.14 20.9406 26.3658 20.9444 26.593V48.3514C20.9406 48.5786 20.9815 48.8044 21.0649 49.0159C21.1484 49.2273 21.2726 49.4203 21.4306 49.5837C21.5886 49.7471 21.7772 49.8778 21.9857 49.9683C22.1943 50.0588 22.4186 50.1073 22.6458 50.1111H50.3542C50.5814 50.1073 50.8057 50.0588 51.0142 49.9683C51.2227 49.8778 51.4114 49.7471 51.5694 49.5837C51.7274 49.4203 51.8516 49.2273 51.935 49.0159C52.0185 48.8044 52.0594 48.5786 52.0555 48.3514V26.593C52.0594 26.3658 52.0185 26.14 51.935 25.9285C51.8516 25.7171 51.7274 25.5241 51.5694 25.3607C51.4114 25.1973 51.2227 25.0666 51.0142 24.9761C50.8057 24.8856 50.5814 24.8371 50.3542 24.8333Z" fill="#5C67E1"/>
<path d="M26.7778 32.6111H28.7222V34.5555H26.7778V32.6111Z" fill="#5C67E1"/>
<path d="M32.6111 32.6111H34.5556V34.5555H32.6111V32.6111Z" fill="#5C67E1"/>
<path d="M38.4445 32.6111H40.3889V34.5555H38.4445V32.6111Z" fill="#5C67E1"/>
<path d="M44.2778 32.6111H46.2222V34.5555H44.2778V32.6111Z" fill="#5C67E1"/>
<path d="M26.7778 37.4722H28.7222V39.4167H26.7778V37.4722Z" fill="#5C67E1"/>
<path d="M32.6111 37.4722H34.5556V39.4167H32.6111V37.4722Z" fill="#5C67E1"/>
<path d="M38.4445 37.4722H40.3889V39.4167H38.4445V37.4722Z" fill="#5C67E1"/>
<path d="M44.2778 37.4722H46.2222V39.4167H44.2778V37.4722Z" fill="#5C67E1"/>
<path d="M26.7778 42.3333H28.7222V44.2778H26.7778V42.3333Z" fill="#5C67E1"/>
<path d="M32.6111 42.3333H34.5556V44.2778H32.6111V42.3333Z" fill="#5C67E1"/>
<path d="M38.4445 42.3333H40.3889V44.2778H38.4445V42.3333Z" fill="#5C67E1"/>
<path d="M44.2778 42.3333H46.2222V44.2778H44.2778V42.3333Z" fill="#5C67E1"/>
<path d="M28.7222 28.7222C28.9801 28.7222 29.2274 28.6198 29.4097 28.4375C29.592 28.2552 29.6944 28.0079 29.6944 27.75V21.9167C29.6944 21.6588 29.592 21.4115 29.4097 21.2292C29.2274 21.0469 28.9801 20.9445 28.7222 20.9445C28.4644 20.9445 28.2171 21.0469 28.0348 21.2292C27.8524 21.4115 27.75 21.6588 27.75 21.9167V27.75C27.75 28.0079 27.8524 28.2552 28.0348 28.4375C28.2171 28.6198 28.4644 28.7222 28.7222 28.7222Z" fill="#5C67E1"/>
<path d="M44.2778 28.7222C44.5356 28.7222 44.7829 28.6198 44.9652 28.4375C45.1476 28.2552 45.25 28.0079 45.25 27.75V21.9167C45.25 21.6588 45.1476 21.4115 44.9652 21.2292C44.7829 21.0469 44.5356 20.9445 44.2778 20.9445C44.0199 20.9445 43.7726 21.0469 43.5903 21.2292C43.408 21.4115 43.3055 21.6588 43.3055 21.9167V27.75C43.3055 28.0079 43.408 28.2552 43.5903 28.4375C43.7726 28.6198 44.0199 28.7222 44.2778 28.7222Z" fill="#5C67E1"/>
<path d="M31.6389 24.8333H41.3611V26.7778H31.6389V24.8333Z" fill="#5C67E1"/>
</g>
<defs>
<clipPath id="clip0_81_123">
<rect width="35" height="35" fill="white" transform="translate(19 19)"/>
</clipPath>
</defs>
</svg>
