<svg width="70" height="80" viewBox="0 0 70 80" fill="none" xmlns="http://www.w3.org/2000/svg">
<rect x="0.5" y="0.5" width="69" height="79" rx="9.5" fill="white" stroke="#D9D9D9"/>
<g clip-path="url(#clip0_81_198)">
<path d="M19.7057 25.746L22.3024 23.1479C22.3024 23.1479 31.8253 26.3226 37.3092 29.4974L43.415 23.3915C44.3259 22.4806 45.4847 21.8488 46.7626 21.6745C47.7372 21.5414 48.9329 21.4167 50.0068 21.4167L50.5833 21.9933C50.5833 23.0657 50.4587 24.2628 50.3255 25.2374C50.1513 26.5153 49.5194 27.6741 48.6085 28.5864L42.5027 34.6923C45.6774 40.1748 48.8522 49.6976 48.8522 49.6976L46.254 52.2944C46.254 52.2944 41.0605 44.7917 36.7312 40.4624C36.7312 40.4624 33.5238 42.5165 28.6519 47.3899C28.6519 47.3899 29.2285 49.6976 29.2285 52.0068L28.6519 52.5834C28.6519 52.5834 26.3428 49.6976 24.3226 47.6774C22.3024 45.6573 19.4167 43.3495 19.4167 43.3495L19.9933 42.7715C22.3024 42.7715 24.6116 43.3481 24.6116 43.3481C29.4835 38.4762 31.5377 35.2689 31.5377 35.2689C27.2083 30.9395 19.7057 25.746 19.7057 25.746Z" stroke="#5C67E1" stroke-width="1.25"/>
</g>
<defs>
<clipPath id="clip0_81_198">
<rect width="34" height="34" fill="white" transform="translate(18 20)"/>
</clipPath>
</defs>
</svg>
