<svg width="72" height="72" viewBox="0 0 72 72" fill="none" xmlns="http://www.w3.org/2000/svg">
<g id="Icon dollar">
<rect id="Rectangle 3" x="0.75" y="0.75" width="70.5" height="70.5" rx="10.25" fill="white" stroke="#D9D9D9" stroke-width="0.5"/>
<g id="&#240;&#159;&#166;&#134; icon &#34;Dollar Sign&#34;">
<path id="Vector" d="M40.2557 34.6758L33.9276 32.8242C33.1951 32.6133 32.6854 31.9277 32.6854 31.166C32.6854 30.2109 33.4588 29.4375 34.4139 29.4375H38.2986C39.0135 29.4375 39.7166 29.6543 40.3026 30.0527C40.66 30.293 41.1404 30.2344 41.4451 29.9355L43.4842 27.9434C43.9002 27.5391 43.8416 26.8652 43.3787 26.5078C41.9432 25.3828 40.1502 24.7559 38.3104 24.75V21.9375C38.3104 21.4219 37.8885 21 37.3729 21H35.4979C34.9822 21 34.5604 21.4219 34.5604 21.9375V24.75H34.4139C30.6815 24.75 27.6815 27.9551 28.0272 31.7578C28.2733 34.459 30.3358 36.6563 32.9373 37.418L38.9432 39.1758C39.6756 39.3926 40.1854 40.0723 40.1854 40.834C40.1854 41.7891 39.4119 42.5625 38.4569 42.5625H34.5721C33.8572 42.5625 33.1541 42.3457 32.5682 41.9473C32.2108 41.707 31.7303 41.7656 31.4256 42.0645L29.3865 44.0566C28.9705 44.4609 29.0291 45.1348 29.492 45.4922C30.9276 46.6172 32.7205 47.2441 34.5604 47.25V50.0625C34.5604 50.5781 34.9822 51 35.4979 51H37.3729C37.8885 51 38.3104 50.5781 38.3104 50.0625V47.2383C41.0408 47.1855 43.6014 45.5625 44.5037 42.9785C45.7635 39.3691 43.6483 35.666 40.2557 34.6758Z" fill="#5C67E1"/>
</g>
</g>
</svg>
